<?xml version="1.0" encoding="iso-8859-1"?>
<!-- Uploaded to: SVG Repo, www.svgrepo.com, Generator: SVG Repo Mixer Tools -->
<svg fill="#000000" height="800px" width="800px" version="1.1" id="Layer_1" xmlns="http://www.w3.org/2000/svg" xmlns:xlink="http://www.w3.org/1999/xlink" 
	 viewBox="0 0 511.999 511.999" xml:space="preserve">
<g>
	<g>
		<path d="M372.872,411.823h-50.088v-250.44c0-9.221-7.475-16.696-16.696-16.696h-33.392v-14.002
			c29.496-10.462,42.313-45.133,26.714-72.192c-0.002-0.002-0.003-0.004-0.004-0.007L270.46,8.338
			c-6.424-11.127-22.51-11.108-28.92,0l-28.944,50.149c-15.638,27.099-2.734,61.755,26.708,72.197v14.002h-33.392
			c-9.221,0-16.696,7.475-16.696,16.696c0,27.619-22.469,50.088-50.088,50.088c-9.221,0-16.696,7.475-16.696,16.696v66.784
			c0,9.221,7.475,16.696,16.696,16.696h50.088v100.176h-50.088c-9.221,0-16.696,7.475-16.696,16.696v66.784
			c0,9.221,7.475,16.696,16.696,16.696h233.744c9.221,0,16.696-7.475,16.696-16.696v-66.784
			C389.568,419.299,382.092,411.823,372.872,411.823z M241.516,75.177l14.484-25.094l14.48,25.087
			c6.367,11.046-1.648,24.994-14.481,24.994C243.155,100.164,235.157,86.199,241.516,75.177z M356.176,478.607H155.824v-33.392
			h50.088c9.221,0,16.696-7.475,16.696-16.696V294.951c0-9.221-7.475-16.696-16.696-16.696h-50.088v-35.069
			c32.66-6.657,58.451-32.447,65.107-65.107h68.461v250.44c0,9.221,7.475,16.696,16.696,16.696h50.088V478.607z"/>
	</g>
</g>
</svg>