<?xml version="1.0" encoding="iso-8859-1"?>
<!-- Uploaded to: SVG Repo, www.svgrepo.com, Generator: SVG Repo Mixer Tools -->
<svg fill="#000000" height="800px" width="800px" version="1.1" id="Layer_1" xmlns="http://www.w3.org/2000/svg" xmlns:xlink="http://www.w3.org/1999/xlink" 
	 viewBox="0 0 480 480" xml:space="preserve">
<g>
	<g>
		<path d="M424,368h-16.64c-3.904-27.096-27.208-48-55.36-48h-8.536C364.232,295.56,376,264.464,376,232
			c0-65.384-46.392-120.112-107.976-133.064L273.888,96H280c4.424,0,8-3.584,8-8s-3.576-8-8-8h-8c-0.928,0-1.8,0.32-2.672,0.632
			l24.92-31.152c0.136-0.168,0.184-0.368,0.304-0.536c0.2-0.288,0.352-0.584,0.512-0.904c0.28-0.568,0.488-1.136,0.632-1.744
			c0.08-0.32,0.16-0.624,0.192-0.96c0.088-0.808,0.048-1.616-0.112-2.424c-0.024-0.128,0.016-0.248-0.016-0.376
			c-0.008-0.024-0.024-0.04-0.032-0.072c-0.216-0.848-0.568-1.672-1.072-2.424l-24-36.24C269.168,1.576,266.672,0,264,0h-48
			c-2.672,0-5.168,1.576-6.656,3.8l-24,36.12c-1.112,1.664-1.448,3.688-1.184,5.576c-0.664,3.968,1.752,7.72,5.544,8.888
			l20.968,26.224C209.8,80.304,208.928,80,208,80h-8c-4.424,0-8,3.584-8,8s3.576,8,8,8h6.112l5.872,2.936
			C150.392,111.888,104,166.616,104,232c0,32.752,11.4,63.48,32.328,88H128c-28.152,0-51.456,20.904-55.36,48H56
			c-4.424,0-8,3.584-8,8v64c0,22.056,17.944,40,40,40h304c22.056,0,40-17.944,40-40v-64C432,371.584,428.424,368,424,368z
			 M203.872,40.792L220.28,16h39.44l15.328,23.232l-35.24,8.928L203.872,40.792z M266.952,57.992L241.248,90.12
			c-0.784,0.992-1.72,0.992-2.496,0l-24.504-30.624l24.184,4.84c0.512,0.104,1.048,0.16,1.568,0.16c0.648,0,1.304-0.08,1.936-0.24
			L266.952,57.992z M120,232c0-66.168,53.832-120,120-120s120,53.832,120,120c0,33.456-14.088,65.32-38.6,88h-26.232
			C324.448,301.584,344,269.072,344,232c0-57.344-46.656-104-104-104s-104,46.656-104,104c0,37.072,19.552,69.584,48.832,88h-26.728
			c-0.224-0.272-0.336-0.608-0.6-0.856C133.32,296.24,120,265.296,120,232z M240,320c-48.52,0-88-39.48-88-88
			c0-48.52,39.48-88,88-88s88,39.48,88,88S288.52,320,240,320z M128,336h32v8c0,4.416,3.576,8,8,8s8-3.584,8-8v-8h56v8
			c0,4.416,3.576,8,8,8s8-3.584,8-8v-8h56v8c0,4.416,3.576,8,8,8s8-3.584,8-8v-8h32c19.32,0,35.48,13.768,39.192,32H296H184H88.808
			C92.52,349.768,108.68,336,128,336z M294.992,404.488c-1.504,2.232-3.928,3.512-6.624,3.512h-96.736
			c-2.696,0-5.12-1.28-6.624-3.512c-1.512-2.232-1.808-4.952-0.808-7.456L189.416,384h101.168l5.208,13.032
			C296.8,399.528,296.504,402.248,294.992,404.488z M416,440c0,13.232-10.768,24-24,24H88c-13.232,0-24-10.768-24-24v-56h16h92.176
			l-2.832,7.088c-2.96,7.4-2.056,15.768,2.416,22.368c4.464,6.6,11.896,10.544,19.872,10.544h96.736
			c7.976,0,15.408-3.944,19.872-10.544c4.472-6.6,5.376-14.968,2.416-22.368L307.824,384H400h16V440z"/>
	</g>
</g>
<g>
	<g>
		<path d="M456,48h-16V32c0-4.416-3.576-8-8-8s-8,3.584-8,8v16h-16c-4.424,0-8,3.584-8,8s3.576,8,8,8h16v16c0,4.416,3.576,8,8,8
			s8-3.584,8-8V64h16c4.424,0,8-3.584,8-8S460.424,48,456,48z"/>
	</g>
</g>
<g>
	<g>
		<path d="M72,160H56v-16c0-4.416-3.576-8-8-8s-8,3.584-8,8v16H24c-4.424,0-8,3.584-8,8s3.576,8,8,8h16v16c0,4.416,3.576,8,8,8
			s8-3.584,8-8v-16h16c4.424,0,8-3.584,8-8S76.424,160,72,160z"/>
	</g>
</g>
</svg>